<svg width="45" height="45" viewBox="0 0 45 45" fill="none" xmlns="http://www.w3.org/2000/svg">
<g clip-path="url(#clip0_52_74)">
<path opacity="0.3" d="M11.25 24.375C11.25 26.4375 12.9375 28.125 15 28.125H26.25C28.3125 28.125 30 26.4375 30 24.375V9.375H11.25V24.375Z" fill="black"/>
<path d="M7.5 35.625H37.5V39.375H7.5V35.625ZM37.5 5.625H7.5V24.375C7.5 28.5187 10.8562 31.875 15 31.875H26.25C30.3937 31.875 33.75 28.5187 33.75 24.375V18.75H37.5C39.5812 18.75 41.25 17.0625 41.25 15V9.375C41.25 7.29375 39.5812 5.625 37.5 5.625ZM30 24.375C30 26.4375 28.3125 28.125 26.25 28.125H15C12.9375 28.125 11.25 26.4375 11.25 24.375V9.375H30V24.375ZM37.5 15H33.75V9.375H37.5V15Z" fill="#E7A500"/>
</g>
<defs>
<clipPath id="clip0_52_74">
<rect width="45" height="45" fill="white"/>
</clipPath>
</defs>
</svg>
